<svg width="24" height="24" viewBox="0 0 24 24" fill="none" xmlns="http://www.w3.org/2000/svg">
<g filter="url(#filter0_d_1_11)">
<path d="M12.326 0C5.74699 0.001 2.24999 4.216 2.24999 8.812C2.24999 10.943 3.44099 13.602 5.34799 14.445C5.89199 14.69 5.81999 14.391 6.28799 12.601C6.32499 12.452 6.30599 12.323 6.18599 12.184C3.45999 9.031 5.65399 2.549 11.937 2.549C21.03 2.549 19.331 15.131 13.519 15.131C12.021 15.131 10.905 13.955 11.258 12.5C11.686 10.767 12.524 8.904 12.524 7.655C12.524 4.507 7.83399 4.974 7.83399 9.145C7.83399 10.434 8.28999 11.304 8.28999 11.304C8.28999 11.304 6.78099 17.4 6.50099 18.539C6.02699 20.467 6.56499 23.588 6.61199 23.857C6.64099 24.005 6.80699 24.052 6.89999 23.93C7.04899 23.735 8.87299 21.133 9.38399 19.252C9.56999 18.567 10.333 15.787 10.333 15.787C10.836 16.695 12.286 17.455 13.831 17.455C18.427 17.455 21.749 13.415 21.749 8.402C21.733 3.596 17.62 0 12.326 0V0Z" fill="white"/>
<path d="M5.43723 13.9348C4.67023 13.5553 4.00862 12.811 3.52798 11.8818C3.02606 10.9114 2.74999 9.79226 2.74999 8.812C2.74999 6.64218 3.57432 4.5723 5.16709 3.04361C6.75774 1.51695 9.14656 0.500483 12.3261 0.5C17.401 0.5 21.2338 3.92627 21.249 8.40308C21.2485 13.2137 18.0817 16.955 13.831 16.955C13.1377 16.955 12.4641 16.7838 11.9115 16.5126C11.3515 16.2379 10.957 15.8816 10.7704 15.5447L10.1757 14.4711L9.85082 15.6547L10.333 15.787L9.85081 15.6547L9.85079 15.6548L9.85068 15.6552L9.85027 15.6567L9.84863 15.6627L9.84221 15.6861L9.81767 15.7755L9.72868 16.0998L9.44603 17.1304C9.23212 17.9107 8.99469 18.7776 8.90148 19.1209C8.66462 19.9928 8.11055 21.0652 7.57594 21.9686C7.36049 22.3327 7.15303 22.6614 6.97855 22.9287C6.93673 22.6054 6.89266 22.2111 6.85965 21.7818C6.77926 20.7366 6.76954 19.541 6.98653 18.6584L6.50382 18.5397L6.98654 18.6584C7.12642 18.0893 7.57356 16.281 7.98586 14.6145L8.53519 12.3944L8.70996 11.6883L8.75833 11.4929L8.77101 11.4417L8.77425 11.4286L8.77507 11.4253L8.77527 11.4244L8.77533 11.4242L8.28999 11.304L8.77534 11.4241L8.82094 11.2399L8.73376 11.0736L8.73362 11.0734L8.73362 11.0734L8.73332 11.0728L8.73298 11.0721L8.73218 11.0705L8.72222 11.0499C8.71276 11.03 8.69801 10.9978 8.67968 10.9542C8.64297 10.8668 8.59215 10.7344 8.54076 10.5637C8.43777 10.2217 8.33399 9.73107 8.33399 9.145C8.33399 7.26571 9.36908 6.33512 10.2811 6.14484C10.7488 6.04726 11.182 6.13855 11.4889 6.37147C11.7858 6.59683 12.024 6.99998 12.024 7.655C12.024 8.19228 11.8396 8.9008 11.5744 9.74636C11.5068 9.96177 11.4343 10.1854 11.36 10.4141C11.1533 11.051 10.9336 11.728 10.7726 12.3801L10.7721 12.3821C10.5569 13.2689 10.7896 14.0946 11.3203 14.6929C11.8455 15.2849 12.6397 15.631 13.519 15.631C15.1728 15.631 16.5071 14.731 17.4106 13.4538C18.3107 12.1817 18.8096 10.5064 18.8174 8.84232C18.8251 7.17696 18.3402 5.47727 17.2144 4.18632C16.0786 2.8838 14.3349 2.049 11.937 2.049C5.28 2.049 2.77698 8.98384 5.79776 12.4994C5.7092 12.8391 5.63955 13.1268 5.58242 13.3627C5.5654 13.433 5.54949 13.4987 5.53453 13.5598C5.49494 13.7215 5.46375 13.8429 5.43723 13.9348ZM5.36685 14.1344C5.36432 14.1393 5.36297 14.1413 5.36292 14.1411C5.36288 14.1409 5.36414 14.1385 5.36685 14.1344Z" stroke="black"/>
</g>
<defs>
<filter id="filter0_d_1_11" x="-1.75001" y="0" width="27.499" height="31.9998" filterUnits="userSpaceOnUse" color-interpolation-filters="sRGB">
<feFlood flood-opacity="0" result="BackgroundImageFix"/>
<feColorMatrix in="SourceAlpha" type="matrix" values="0 0 0 0 0 0 0 0 0 0 0 0 0 0 0 0 0 0 127 0" result="hardAlpha"/>
<feOffset dy="4"/>
<feGaussianBlur stdDeviation="2"/>
<feComposite in2="hardAlpha" operator="out"/>
<feColorMatrix type="matrix" values="0 0 0 0 0 0 0 0 0 0 0 0 0 0 0 0 0 0 0.25 0"/>
<feBlend mode="normal" in2="BackgroundImageFix" result="effect1_dropShadow_1_11"/>
<feBlend mode="normal" in="SourceGraphic" in2="effect1_dropShadow_1_11" result="shape"/>
</filter>
</defs>
</svg>
